<?xml version="1.0" encoding="utf-8"?>
<!-- Generator: Adobe Illustrator 27.4.0, SVG Export Plug-In . SVG Version: 6.00 Build 0)  -->
<svg version="1.1" id="Layer_2" xmlns="http://www.w3.org/2000/svg" xmlns:xlink="http://www.w3.org/1999/xlink" x="0px" y="0px"
	 viewBox="0 0 32 32" style="enable-background:new 0 0 32 32;" xml:space="preserve">
<style type="text/css">
	.st0{fill:url(#SVGID_1_);}
	.st1{fill:#39396B;}
	.st2{fill:url(#SVGID_00000087377089413229932620000002813220716790460591_);}
	.st3{fill:#FFFFFF;}
</style>
<g>
	<linearGradient id="SVGID_1_" gradientUnits="userSpaceOnUse" x1="29.2413" y1="29.2411" x2="2.7587" y2="2.7585">
		<stop  offset="0" style="stop-color:#4E4F9D"/>
		<stop  offset="1" style="stop-color:#141027"/>
	</linearGradient>
	<path class="st0" d="M8.5,31.6c-4.5,0-8.1-3.6-8.1-8.1v-15C0.4,4,4,0.4,8.5,0.4h15c4.5,0,8.1,3.6,8.1,8.1v15c0,4.5-3.6,8.1-8.1,8.1
		H8.5z"/>
	<path class="st1" d="M23.5,0.8c4.3,0,7.8,3.5,7.8,7.8v15c0,4.3-3.5,7.8-7.8,7.8h-15c-4.3,0-7.8-3.5-7.8-7.8v-15
		c0-4.3,3.5-7.8,7.8-7.8H23.5 M23.5,0h-15C3.8,0,0,3.8,0,8.5v15C0,28.2,3.8,32,8.5,32h15c4.7,0,8.5-3.8,8.5-8.5v-15
		C32,3.8,28.2,0,23.5,0L23.5,0z"/>
</g>
<g id="Layer_10">
	<g>
		
			<linearGradient id="SVGID_00000095328029487318794350000000366967844378565517_" gradientUnits="userSpaceOnUse" x1="24.0304" y1="595.9065" x2="13.8971" y2="574.8527" gradientTransform="matrix(1 0 0 1 0 -568)">
			<stop  offset="0.2071" style="stop-color:#000000;stop-opacity:0"/>
			<stop  offset="0.7516" style="stop-color:#110F0F;stop-opacity:0.6867"/>
			<stop  offset="1" style="stop-color:#000000"/>
		</linearGradient>
		<path style="fill:url(#SVGID_00000095328029487318794350000000366967844378565517_);" d="M32.2,30.4c0.2-0.1,0.7-11.7,0.8-12.9
			L28.4,5.4L24.2,12l-6.1-5.6l-1.4,6.6l-5.3-2.6l-0.2,2l-2.9,3.6l-1.6,7.1l8,7.7C17,30.7,31.6,30.5,32.2,30.4z"/>
	</g>
</g>
<g>
	<path d="M29.9,20.7c-5.3-1.3-7.4-5.3-7.4-5.3c5.8-3,6.1-9.3,6.1-9.3l-4.8,3c1,5.1-5.3,6.5-5.3,6.5l0-8.5l-1.8,1.1v2.5l-0.5-2.2
		l-1,0.6l0.5,1.8l-0.9-1.5l-1.5,0.9c1.1,1.5,1.9,3.3,1.9,3.3v12.1l3.6-2.7c-0.9-6.7,1.5-6.2,1.5-6.2c3,4.9,7.5,8.1,9.7,9.1L30,26
		L29.9,20.7z"/>
	<path d="M10,18.2c-2.4,1.3-1.4,3.4-0.8,4.2c0.1,0.1-0.1,0.3-0.1,0.3s-2.8-2.8,0.3-4.9c1.4-2.8,3-3.9,3.6-4.4l-1.3-2.3l-4.5-0.7
		c0.2-1,1.3-1.5,2.6-1.5C9.2,8.7,8.6,8.6,8.1,8.6c-1.2,0.1-2.3,0.8-3,1.9c-0.1-0.5-0.2-1-0.2-1.5c-0.7,1.1-1,2.2-0.9,3.2
		c-0.6,0.7-1.4,1.3-2.4,1.9l1.1,2.1l5-2l-0.1-1.6c1-0.1,1.9,0.2,2.3,0.9c-1.6,1.1-4.3,3.6-4.8,5.7c-0.9,3.5,2.1,8.3,8.6,5.8v-1.6
		c0,0-3.9,0.3-4.3-2.2c-0.1-0.6,0-1.3,0.9-1.5c0.6-0.1,1.4,0.6,1.4,0.6s0-0.6,0.3-1c0.6-0.8,2,0.3,2,0.5C13.8,17.5,11,17.6,10,18.2z
		 M5,13c0.5-0.9,1.3-1.5,2.1-1.8C7.5,12.6,6.3,13.5,5,13z"/>
</g>
<g>
	<path class="st3" d="M29.5,20c-5.3-1.3-7.4-5.3-7.4-5.3c5.8-3,6.1-9.3,6.1-9.3l-4.8,3c1,5.1-5.3,6.5-5.3,6.5l0-8.5l-1.8,1.1v2.5
		l-0.5-2.2l-1,0.6l0.5,1.8l-0.9-1.5l-1.5,0.9c1.1,1.5,1.9,3.3,1.9,3.3v12.1l3.6-2.7c-0.9-6.7,1.5-6.2,1.5-6.2c3,4.9,7.5,8.1,9.7,9.1
		l0.1-0.1L29.5,20z"/>
	<path class="st3" d="M9.6,17.6c-2.4,1.3-1.4,3.4-0.8,4.2C8.9,21.9,8.7,22,8.7,22s-2.8-2.8,0.3-4.9c1.4-2.8,3-3.9,3.6-4.4l-1.3-2.3
		L6.8,9.8c0.2-1,1.3-1.5,2.6-1.5C8.8,8,8.2,8,7.6,8c-1.2,0.1-2.3,0.8-3,1.9c-0.1-0.5-0.2-1-0.2-1.5c-0.7,1.1-1,2.2-0.9,3.2
		c-0.6,0.7-1.4,1.3-2.4,1.9l1.1,2.1l5-2l-0.1-1.6C8.2,12,9,12.3,9.4,13c-1.6,1.1-4.3,3.6-4.8,5.7c-0.9,3.5,2.1,8.3,8.6,5.8v-1.6
		c0,0-3.9,0.3-4.3-2.2c-0.1-0.6,0-1.3,0.9-1.5c0.6-0.1,1.4,0.6,1.4,0.6s0-0.6,0.3-1c0.6-0.8,2,0.3,2,0.5C13.4,16.9,10.6,17,9.6,17.6
		z M4.6,12.4c0.5-0.9,1.3-1.5,2.1-1.8C7.1,11.9,5.9,12.8,4.6,12.4z"/>
</g>
</svg>
